<svg xmlns="http://www.w3.org/2000/svg" width="133" height="25" viewBox="0 0 133 25" fill="none"><rect width="2.22649" height="4.89176" rx="1.11324" transform="matrix(-0.999975 0.00710679 0.00710679 0.999975 19.1626 3.93323)" fill="#FC6348" stroke="#FC6348" stroke-width="1.65609"></rect><rect width="2.22649" height="6.15339" rx="1.11324" transform="matrix(-0.707107 0.707107 0.707107 0.707107 10.4673 0.486938)" fill="#FC6348" stroke="#FC6348" stroke-width="1.65609"></rect><rect width="2.22649" height="6.28069" rx="1.11324" transform="matrix(-0.00710687 0.999975 0.999975 0.00710687 2.61914 5.02954)" fill="#FC6348" stroke="#FC6348" stroke-width="1.65609"></rect><rect width="2.22649" height="6.06856" rx="1.11324" transform="matrix(0.696985 0.717086 0.717086 -0.696985 0.5 13.6265)" fill="#FC6348" stroke="#FC6348" stroke-width="1.65609"></rect><rect width="2.22649" height="6.05334" rx="1.11324" transform="matrix(0.999773 0.0213191 0.0213191 -0.999773 4.87402 21.369)" fill="#FC6348" stroke="#FC6348" stroke-width="1.65609"></rect><rect width="2.22649" height="6.2918" rx="1.11324" transform="matrix(0.72692 -0.686722 -0.686722 -0.72692 13.5889 24)" fill="#FC6348" stroke="#FC6348" stroke-width="1.65609"></rect><rect width="2.22649" height="6.05323" rx="1.11324" transform="matrix(0.035527 -0.999368 -0.999368 -0.035527 21.2388 19.5736)" fill="#FC6348" stroke="#FC6348" stroke-width="1.65609"></rect><rect width="2.22649" height="5.69299" rx="1.11324" transform="matrix(-0.676321 -0.736607 -0.736607 0.676321 23.5532 11.3019)" fill="#FC6348" stroke="#FC6348" stroke-width="1.65609"></rect><g clip-path="url(#clip0_2002_3)"><path d="M32.8984 21.0005V11.2641L32.9189 8.35189H34.0284L32.8984 9.38244V8.58261C32.8984 6.71121 33.3944 5.3115 34.3863 4.38349C35.3782 3.44009 36.9274 2.90687 39.034 2.78895L41.7183 2.59412L40.6804 5.52171L39.4737 5.59862C38.8039 5.63451 38.2773 5.74218 37.8836 5.93188C37.4899 6.10108 37.2087 6.35231 37.0348 6.68044C36.8661 6.98807 36.7792 7.40337 36.7792 7.91608V8.79282L36.2934 8.35702H36.7792V11.2692V21.0057H32.8984V21.0005Z" fill="black"></path><path d="M45.3543 21.2875C44.2908 21.2875 43.4114 21.0875 42.7109 20.6927C42.0105 20.2979 41.4889 19.7032 41.1464 18.9136C40.8191 18.1086 40.6606 17.1088 40.6606 15.9245V8.41321H44.5414V16.027C44.5414 16.5243 44.6078 16.9448 44.7459 17.2883C44.8839 17.6164 45.0885 17.8625 45.3646 18.0368C45.656 18.1907 46.0241 18.2676 46.469 18.2676C46.9649 18.2676 47.4046 18.1548 47.7779 17.9343C48.1562 17.6933 48.4477 17.3601 48.6522 16.9294C48.8772 16.4987 48.9845 15.9911 48.9845 15.4118V8.35168H52.8653V21.0003H49.0868V18.5291H49.4703C49.0919 19.4058 48.5551 20.0826 47.8495 20.5645C47.1439 21.0465 46.3156 21.2875 45.3595 21.2875H45.3543Z" fill="black"></path><path d="M59.5274 21.2876C57.9015 21.2876 56.7102 20.8672 55.9586 20.0264C55.207 19.1701 54.8286 17.8986 54.8286 16.2118V2.84534H58.7093V16.058C58.7093 16.4886 58.7758 16.8629 58.9139 17.1911C59.0519 17.4987 59.2462 17.7345 59.507 17.8884C59.7831 18.0422 60.1256 18.1191 60.5347 18.1191C60.7034 18.1191 60.8875 18.1088 61.0767 18.0934C61.2658 18.0781 61.4448 18.0422 61.6186 17.9909L61.5675 21.0057C61.2403 21.0928 60.9079 21.1595 60.5654 21.2107C60.2381 21.262 59.8956 21.2876 59.5376 21.2876H59.5274Z" fill="black"></path><path d="M67.0543 21.2876C65.4284 21.2876 64.237 20.8672 63.4854 20.0264C62.7338 19.1701 62.3555 17.8986 62.3555 16.2118V2.84534H66.2362V16.058C66.2362 16.4886 66.3027 16.8629 66.4407 17.1911C66.5788 17.4987 66.7197 17.6983 66.9334 17.9065C67.1724 18.151 67.2729 18.1328 67.6124 18.246C67.7809 18.3022 68.0899 18.301 68.2791 18.2857C68.4682 18.2703 70.6123 18.2973 70.781 18.246L68.7007 21.1236C68.3734 21.2107 68.4348 21.1595 68.0922 21.2107C67.765 21.262 67.4224 21.2876 67.0645 21.2876H67.0543Z" fill="black"></path><path d="M74.6999 11.2639C73.9278 11.2639 72.9615 11.3921 72.6189 11.6484C72.2764 11.8894 72.1076 12.197 72.1076 12.5764C72.1076 12.8687 72.1997 13.1199 72.3888 13.325C72.5934 13.5147 72.9001 13.6429 73.3143 13.7095L76.0139 13.6839C77.1286 13.8736 77.9722 14.253 78.5551 14.817C79.1379 15.3656 79.4294 15.904 79.4294 16.5705C79.4294 17.4472 79.1548 18.2492 78.7033 19.0301C78.3166 19.6988 78.0231 20.0792 77.1178 20.6223C75.995 21.296 75.3606 21.1255 74.2358 21.264C73.5148 21.3973 67.3895 21.3101 66.6226 21.3614L68.8416 18.2492C69.5881 18.3056 73.3194 18.0881 73.8511 18.0881C74.5874 18.0881 75.1192 17.9753 75.4413 17.7549C75.7838 17.5139 75.9526 17.2062 75.9526 16.8268C75.9526 16.8268 75.9446 16.5982 75.7248 16.4239C75.5049 16.2496 75.0731 16.2731 74.6437 16.2065L71.944 16.2321C70.8805 16.0424 70.0624 15.6579 69.4796 15.0734C68.912 14.4735 68.6308 13.7095 68.6308 12.7815C68.6308 11.9253 68.8711 11.187 69.3517 10.5666C69.8324 9.93084 70.451 9.24381 71.2844 8.91054C72.1179 8.57728 73.3859 8.35168 74.4647 8.35168" fill="black"></path><path d="M86.6748 21.2875C84.8751 21.2875 83.5406 20.8517 82.6663 19.9749C81.792 19.0982 81.3574 17.8113 81.3574 16.1091V11.269H74.4702V8.35682H81.3574V4.6499H85.2381V8.35682H88.9603V11.269H85.2381V15.9552C85.2381 16.6782 85.4017 17.2165 85.7238 17.5805C86.0664 17.9394 86.6033 18.124 87.3446 18.124C87.5696 18.124 87.7997 18.0984 88.04 18.0471C88.2957 17.9958 88.5718 17.9292 88.8632 17.842L89.4307 20.6773C89.0728 20.867 88.6433 21.0106 88.1474 21.1131C87.6514 21.2311 87.1606 21.2926 86.6851 21.2926L86.6748 21.2875Z" fill="black"></path><path d="M89.8452 21.0005V8.35695H93.6493V11.4486H93.3936C93.5981 10.4181 94.043 9.62848 94.7281 9.07987C95.4286 8.51076 96.354 8.18775 97.5044 8.10059L98.6344 8.02368L98.8645 11.2948L96.6812 11.5255C95.7047 11.6127 94.9786 11.8947 94.498 12.3766C94.0378 12.8586 93.8026 13.5507 93.8026 14.4634V21.0056H89.8452V21.0005Z" fill="black"></path><path d="M99.4019 21.0004L99.5247 8.39404L103.326 8.39407L103.283 21.0055H99.4019V21.0004Z" fill="black"></path><path d="M111.31 18.3754C112.148 18.3754 112.823 18.0729 113.339 17.4731C113.851 16.8527 114.111 15.9195 114.111 14.6634C114.111 13.4072 113.856 12.4895 113.339 11.905C112.828 11.3051 112.148 11.0026 111.31 11.0026C110.471 11.0026 109.822 11.3051 109.305 11.905C108.794 12.4895 108.533 13.4072 108.533 14.6634C108.533 15.9195 108.789 16.8527 109.305 17.4731C109.817 18.0729 110.486 18.3754 111.31 18.3754ZM110.154 21.2876C109.06 21.2876 108.088 21.021 107.25 20.4878C106.427 19.9546 105.788 19.1906 105.322 18.196C104.862 17.2013 104.627 16.0221 104.627 14.6685C104.627 13.3149 104.857 12.146 105.322 11.1667C105.782 10.1874 106.427 9.43371 107.25 8.90049C108.088 8.36726 109.055 8.10065 110.154 8.10065C111.146 8.10065 112.02 8.34163 112.772 8.82358C113.544 9.30553 114.065 9.93104 114.336 10.7052H114.055V2.84534H117.936V21.0057H114.132V18.5087H114.362C114.122 19.3496 113.61 20.0264 112.823 20.5442C112.051 21.0415 111.161 21.2928 110.154 21.2928V21.2876Z" fill="black"></path><path d="M126.449 21.2873C124.961 21.2873 123.673 21.0207 122.594 20.4875C121.53 19.9389 120.712 19.175 120.13 18.1957C119.562 17.201 119.281 16.032 119.281 14.6938C119.281 13.3557 119.557 12.2482 120.104 11.2689C120.651 10.2742 121.413 9.50005 122.389 8.95145C123.381 8.38233 124.506 8.10034 125.754 8.10034C127.001 8.10034 128.049 8.36695 128.939 8.90018C129.829 9.41289 130.514 10.1512 130.995 11.1151C131.491 12.079 131.741 13.2172 131.741 14.54V15.5193H122.466V13.5095H128.939L128.53 13.8684C128.53 12.8224 128.3 12.0329 127.835 11.4996C127.39 10.951 126.746 10.6742 125.907 10.6742C125.273 10.6742 124.736 10.8177 124.286 11.11C123.836 11.4022 123.499 11.8226 123.259 12.3712C123.018 12.9199 122.901 13.5813 122.901 14.3554V14.5605C122.901 15.4373 123.029 16.1551 123.284 16.7242C123.56 17.2728 123.959 17.6881 124.491 17.9598C125.038 18.2367 125.713 18.37 126.521 18.37C127.206 18.37 127.901 18.2675 128.602 18.0624C129.302 17.8573 129.936 17.5394 130.504 17.1087L131.531 19.7082C130.897 20.1901 130.12 20.5747 129.195 20.8669C128.285 21.1438 127.369 21.2771 126.444 21.2771L126.449 21.2873Z" fill="black"></path><path d="M32.899 11.2639H29.4375L30.4601 8.41833H32.899V11.2639Z" fill="black"></path><path d="M39.6379 11.2639H34.0137L35.0363 8.41833H39.6737L39.6379 11.2639Z" fill="black"></path></g><path d="M103.521 4.5105C103.521 5.74424 102.52 6.74439 101.287 6.74439C100.053 6.74439 99.0527 5.74424 99.0527 4.5105C99.0527 3.27676 100.053 2.27661 101.287 2.27661C102.52 2.27661 103.521 3.27676 103.521 4.5105Z" fill="black"></path><defs><clipPath id="clip0_2002_3"><rect width="103.062" height="19.0114" fill="white" transform="translate(29.438 2.276)"></rect></clipPath></defs></svg>